STARTFONT 2.1
COMMENT Graphics font for directory trees
FONT teddygraph.16.font
SIZE 16 75 75
FONTBOUNDINGBOX 16 16 0 0
STARTPROPERTIES 7
PIXEL_SIZE 16
POINT_SIZE 160
FONT_ASCENT 16
FONT_DESCENT 0
CHARSET_REGISTRY "iso10646"
CHARSET_ENCODING "1"
DEFAULT_CHAR 0
ENDPROPERTIES
CHARS 2
STARTCHAR U+0000
ENCODING 0
SWIDTH 1000 0
DWIDTH 16 0
BBX 16 16 0 0
BITMAP
0000
3FFE
2002
2082
2082
2082
2082
2FFA
2082
2082
2082
2082
2002
3FFE
0000
0000
ENDCHAR
STARTCHAR U+0001
ENCODING 1
SWIDTH 1000 0
DWIDTH 16 0
BBX 16 16 0 0
BITMAP
0000
3FFE
2002
2002
2002
2002
2002
2FFA
2002
2002
2002
2002
2002
3FFE
0000
0000
ENDCHAR
ENDFONT
